<svg xmlns="http://www.w3.org/2000/svg" viewBox="0 0 669.0719 61.3184"><g id="a4f795ab-1722-4ccc-bc6a-77f9186b098b" data-name="Ebene 2"><g id="e5800fb2-8bcd-4eff-a91d-8217c025c061" data-name="Ebene 1"><path d="M29.3932,59.3139,11.9324,33.7526V59.3139H0V2.0045H23.7469c11.9276,0,19.9408,7.128,19.9408,17.7358,0,9.3057-4.4284,15.1171-13.1632,17.2772l-2.0141.4971L44.3475,59.3139ZM11.9324,28.0486H25.1493c4.3233,0,6.9067-4.2239,6.9067-8.3083,0-4.3409-3.346-8.0084-7.3068-8.0084H11.9324Z" style="fill:#1d1f20"/><polygon points="88.912 59.314 88.912 2.004 125.888 2.004 125.888 12.232 100.844 12.232 100.844 25.845 123.984 25.845 123.984 35.874 100.844 35.874 100.844 49.485 126.99 49.485 126.99 59.314 88.912 59.314" style="fill:#1d1f20"/><polygon points="173.93 12.692 181.307 2.004 194.357 33.174 207.408 2.004 219.689 2.004 194.357 61.272 173.93 12.692" style="fill:#1d1f20"/><path d="M291.7835,61.3184c-17.94,0-30.9591-12.8945-30.9591-30.6592S273.844,0,291.7835,0c17.65,0,30.96,13.18,30.96,30.6592S309.4335,61.3184,291.7835,61.3184Zm0-50.1878c-11.0849,0-18.8271,8.0308-18.8271,19.5286s7.7422,19.5271,18.8271,19.5271c10.9093,0,18.8279-8.2121,18.8279-19.5271S302.6928,11.1306,291.7835,11.1306Z" style="fill:#1d1f20"/><polygon points="377.582 59.314 377.582 12.232 364.159 12.232 364.159 2.004 403.239 2.004 403.239 12.232 389.614 12.232 389.614 59.314 377.582 59.314" style="fill:#1d1f20"/><polygon points="448.062 59.314 448.062 13.515 459.994 2.004 459.994 59.314 448.062 59.314" style="fill:#1d1f20"/><path d="M539.185,61.3184c-17.9395,0-30.9591-12.8945-30.9591-30.6592S521.2455,0,539.185,0c17.65,0,30.96,13.18,30.96,30.6592S556.835,61.3184,539.185,61.3184Zm0-50.1878c-11.0849,0-18.8271,8.0308-18.8271,19.5286S528.1,50.1863,539.185,50.1863c10.9093,0,18.8279-8.2121,18.8279-19.5271S550.0943,11.1306,539.185,11.1306Z" style="fill:#1d1f20"/><polygon points="655.896 59.314 630.304 20.271 630.304 59.314 618.372 59.314 618.372 2.004 631.747 2.004 657.24 40.951 657.24 2.004 669.072 2.004 669.072 59.314 655.896 59.314" style="fill:#1d1f20"/></g></g></svg>